<?xml version="1.0" standalone="no"?>
<!DOCTYPE svg PUBLIC "-//W3C//DTD SVG 20010904//EN" "http://www.w3.org/TR/2001/REC-SVG-20010904/DTD/svg10.dtd">
<svg version="1.0" xmlns="http://www.w3.org/2000/svg" width="512.000000pt" height="512.000000pt"
  viewBox="0 0 512.000000 512.000000" preserveAspectRatio="xMidYMid meet">

  <g transform="translate(0.000000,512.000000) scale(0.100000,-0.100000)" fill="#000000" stroke="none">
    <path d="M953 4945 c-332 -60 -620 -300 -733 -612 -62 -173 -61 -136 -58
-1494 3 -1233 3 -1234 25 -1310 101 -356 348 -603 702 -702 72 -20 102 -21
558 -25 l482 -3 267 -306 c273 -312 296 -333 364 -333 68 0 91 21 364 334
l268 306 443 0 c347 0 461 3 528 15 379 66 685 356 774 735 17 70 18 163 18
1330 0 1167 -1 1260 -18 1330 -89 379 -395 669 -774 735 -74 13 -301 15 -1612
14 -1205 -1 -1541 -4 -1598 -14z m1695 -972 c50 -37 61 -67 112 -293 60 -266
91 -343 174 -426 83 -82 160 -114 424 -173 122 -28 231 -55 242 -61 10 -6 32
-27 47 -47 23 -30 28 -47 28 -93 0 -46 -5 -63 -28 -93 -15 -20 -37 -41 -47
-47 -11 -6 -120 -33 -242 -61 -307 -69 -397 -114 -480 -241 -50 -77 -62 -113
-118 -360 -29 -128 -58 -233 -68 -247 -51 -69 -137 -89 -206 -49 -22 13 -47
34 -57 48 -11 15 -40 118 -69 250 -70 309 -115 399 -242 482 -77 50 -114 62
-360 118 -225 51 -254 63 -292 114 -29 39 -29 133 0 172 38 51 67 63 292 114
246 56 283 68 360 118 125 82 173 175 237 462 25 113 50 219 56 236 28 89 162
133 237 77z" />
  </g>
</svg>